ply
format ascii 1.0
comment Generated by ferrum_cloud
element vertex 106
property float x
property float y
property float z
end_header
-0.1741 -0.17381 0 
0.69907 0.21082 0 
-0.36101 0.24172 0 
-0.3077 0.20998 0 
-0.26372 0.29905 0 
-0.10653 -0.02428 0 
0.23755 0.19348 0 
0.085123 0.29441 0 
0.18836 0.32277 0 
-0.20707 -0.056403 0 
-0.057568 0.29457 0 
-0.22562 0.24399 0 
-0.16391 0.32118 0 
0.43957 0.23976 0 
0.44313 0.32169 0 
-0.25035 0.2371 0 
0.74995 0.24723 0 
0.58678 0.2929 0 
0.49351 0.32282 0 
0.039994 0.32283 0 
-0.70618 0.29525 0 
0.59308 0.24134 0 
-0.4475 0.1673 0 
0.5357 0.2444 0 
0.69927 0.32278 0 
-0.15584 -0.25716 0 
-0.15155 0.24381 0 
-0.15266 -0.025282 0 
0.2704 -0.078167 0 
0.13884 0.24227 0 
0.62807 0.22187 0 
-0.65063 0.24399 0 
-0.2244 -0.10653 0 
0.33444 0.3216 0 
-0.0066125 -0.02428 0 
-0.41591 0.22004 0 
-0.075715 0.32095 0 
-0.65104 0.32199 0 
0.24416 -0.056883 0 
-0.066235 -0.27472 0 
-0.17577 -0.20789 0 
0.49375 0.21006 0 
-0.10861 -0.27494 0 
0.68049 0.29768 0 
-0.44237 0.28859 0 
0.29465 0.19323 0 
0.3787 0.32173 0 
0.029114 -0.12594 0 
-0.57019 0.22334 0 
0.22446 -0.20514 0 
0.3788 0.29315 0 
-0.45004 0.19812 0 
0.044144 -0.02428 0 
0.81921 0.29315 0 
0.53436 0.29164 0 
-0.281 0.3185 0 
0.036583 -0.15619 0 
0.27311 -0.10653 0 
-0.10622 0.32304 0 
-0.21248 0.29805 0 
-0.30791 0.32307 0 
0.1417 0.29506 0 
-0.15082 0.29453 0 
0.4384 0.19632 0 
-0.055185 0.24185 0 
0.23815 0.32199 0 
0.81915 0.32 0 
0.23492 0.29446 0 
-0.65063 0.29315 0 
0.14248 -0.02428 0 
0.74459 0.32192 0 
0.83239 0.23398 0 
0.00088411 0.29487 0 
0.24428 -0.15599 0 
0.19316 -0.25672 0 
-0.50916 0.24296 0 
-0.35845 0.2954 0 
0.52125 0.31955 0 
0.58706 0.32199 0 
-0.70302 0.24183 0 
0.30249 0.29189 0 
-0.22562 0.19323 0 
-0.50623 0.29315 0 
0.29465 0.24399 0 
-0.11534 0.22049 0 
-0.50568 0.3218 0 
0.22244 -0.0296 0 
0.3788 0.24399 0 
0.093313 -0.02428 0 
-0.59653 0.29315 0 
-0.59611 0.32199 0 
-0.057362 -0.02428 0 
-0.0034333 0.24399 0 
-0.72566 0.32129 0 
0.08642 0.32181 0 
0.14497 -0.27484 0 
-0.75538 0.32301 0 
0.75504 0.29765 0 
0.44107 0.29711 0 
-0.77062 0.22133 0 
0.19017 -0.025297 0 
-0.20734 -0.15641 0 
0.23514 0.24172 0 
0.19016 0.21038 0 
-0.40551 0.32178 0 
0.086957 0.24399 0 
